<svg aria-hidden="true" style="position: absolute; width: 0; height: 0; overflow: hidden;" version="1.1" xmlns="http://www.w3.org/2000/svg" xmlns:xlink="http://www.w3.org/1999/xlink">
<defs>
<symbol id="icon-burger_black" viewBox="0 0 32 32">
<path stroke-linejoin="round" stroke-linecap="round" stroke-miterlimit="4" stroke-width="2" d="M4 16h24M4 8h24M4 24h16"></path>
</symbol>
<symbol id="icon-burger_white" viewBox="0 0 32 32">
<path fill="none"  stroke-linejoin="round" stroke-linecap="round" stroke-miterlimit="4" stroke-width="2" d="M4 16h24M4 8h24M4 24h16"></path>
</symbol>
<symbol id="icon-button_left" viewBox="0 0 32 32">
<path stroke-linejoin="round" stroke-linecap="round" stroke-miterlimit="4" stroke-width="1.7778" d="M19.556 22.222l-6.222-6.222 6.222-6.222"></path>
</symbol>
<symbol id="icon-button_right" viewBox="0 0 32 32">
<path stroke-linejoin="round" stroke-linecap="round" stroke-miterlimit="4" stroke-width="1.7778" d="M12.444 22.222l6.222-6.222-6.222-6.222"></path>
</symbol>
<symbol id="icon-chevron-down" viewBox="0 0 32 32">
<path fill="none" stroke="#f7f7f7" style="stroke: var(--color1, #f7f7f7)" stroke-linejoin="round" stroke-linecap="round" stroke-miterlimit="4" stroke-width="2.88" d="M8 12l8 8 8-8"></path>
</symbol>
<symbol id="icon-close_white" viewBox="0 0 32 32">
<path fill="none" stroke="#f7f7f7" style="stroke: var(--color1, #f7f7f7)" stroke-linejoin="round" stroke-linecap="round" stroke-miterlimit="4" stroke-width="1.8" d="M22.667 9.333l-13.334 13.334M9.333 9.333l13.334 13.334"></path>
</symbol>
<symbol id="icon-facebook_black" viewBox="0 0 32 32">
<path stroke-linejoin="round" stroke-linecap="round" stroke-miterlimit="4" stroke-width="2" d="M24 2.667h-4c-3.682 0-6.667 2.985-6.667 6.667v0 4h-4v5.333h4v10.667h5.333v-10.667h4l1.333-5.333h-5.333v-4c0-0.736 0.597-1.333 1.333-1.333v0h4v-5.333z"></path>
</symbol>
<symbol id="icon-facebook_black_mobile" viewBox="0 0 32 32">
<path stroke-linejoin="round" stroke-linecap="round" stroke-miterlimit="4" stroke-width="2.0800" d="M24 2.666h-4c-3.681 0.001-6.666 2.986-6.666 6.667v0 4h-4v5.333h4v10.667h5.333v-10.667h4l1.334-5.333h-5.334v-4c0-0 0-0.001 0-0.002 0-0.736 0.597-1.333 1.333-1.333 0.001 0 0.001 0 0.002 0h3.998v-5.333z"></path>
</symbol>
<symbol id="icon-facebook_white" viewBox="0 0 32 32">
<path fill="none" stroke="#f7f7f7" style="stroke: var(--color1, #f7f7f7)" stroke-linejoin="round" stroke-linecap="round" stroke-miterlimit="4" stroke-width="2" d="M24 2.667h-4c-3.682 0-6.667 2.985-6.667 6.667v0 4h-4v5.333h4v10.667h5.333v-10.667h4l1.333-5.333h-5.333v-4c0-0.736 0.597-1.333 1.333-1.333v0h4v-5.333z"></path>
</symbol>
<symbol id="icon-facebook_white_mobile" viewBox="0 0 32 32">
<path fill="none"  stroke-linejoin="round" stroke-linecap="round" stroke-miterlimit="4" stroke-width="2.0800" d="M24 2.666h-4c-3.681 0.001-6.666 2.986-6.666 6.667v0 4h-4v5.333h4v10.667h5.333v-10.667h4l1.333-5.333h-5.333v-4c0-0 0-0.001 0-0.002 0-0.736 0.597-1.333 1.333-1.333h4v-5.333z"></path>
</symbol>
<symbol id="icon-instagram_black" viewBox="0 0 32 32">
<path stroke-linejoin="round" stroke-linecap="round" stroke-miterlimit="4" stroke-width="2" d="M22.667 2.667h-13.333c-3.682 0-6.667 2.985-6.667 6.667v0 13.333c0 3.682 2.985 6.667 6.667 6.667v0h13.333c3.682 0 6.667-2.985 6.667-6.667v0-13.333c0-3.682-2.985-6.667-6.667-6.667v0z"></path>
<path stroke-linejoin="round" stroke-linecap="round" stroke-miterlimit="4" stroke-width="2" d="M21.333 15.16c0.037 0.235 0.058 0.506 0.058 0.782 0 2.946-2.388 5.334-5.334 5.334-2.67 0-4.881-1.962-5.272-4.522l-0.004-0.030c-0.037-0.235-0.058-0.506-0.058-0.782 0-2.946 2.388-5.334 5.334-5.334 2.67 0 4.881 1.962 5.272 4.522l0.004 0.030zM23.333 8.667h0.016"></path>
</symbol>
<symbol id="icon-instagram_black_mobile" viewBox="0 0 32 32">
<path stroke-linejoin="round" stroke-linecap="round" stroke-miterlimit="4" stroke-width="2.0800" d="M22.666 2.666h-13.333c-3.682 0-6.667 2.985-6.667 6.667v0 13.333c0 3.682 2.985 6.667 6.667 6.667v0h13.333c3.682 0 6.667-2.985 6.667-6.667v0-13.333c0-3.682-2.985-6.667-6.667-6.667v0z"></path>
<path stroke-linejoin="round" stroke-linecap="round" stroke-miterlimit="4" stroke-width="2.0800" d="M21.334 15.16c0.037 0.235 0.058 0.506 0.058 0.782 0 2.945-2.388 5.333-5.333 5.333-2.669 0-4.88-1.961-5.271-4.521l-0.004-0.030c-0.037-0.235-0.058-0.506-0.058-0.782 0-2.945 2.388-5.333 5.333-5.333 2.669 0 4.88 1.961 5.271 4.521l0.004 0.030zM23.334 8.666h0.016"></path>
</symbol>
<symbol id="icon-instagram_white" viewBox="0 0 32 32">
<path fill="none" stroke="#f7f7f7" style="stroke: var(--color1, #f7f7f7)" stroke-linejoin="round" stroke-linecap="round" stroke-miterlimit="4" stroke-width="2" d="M22.667 2.667h-13.333c-3.682 0-6.667 2.985-6.667 6.667v0 13.333c0 3.682 2.985 6.667 6.667 6.667v0h13.333c3.682 0 6.667-2.985 6.667-6.667v0-13.333c0-3.682-2.985-6.667-6.667-6.667v0z"></path>
<path fill="none" stroke="#f7f7f7" style="stroke: var(--color1, #f7f7f7)" stroke-linejoin="round" stroke-linecap="round" stroke-miterlimit="4" stroke-width="2" d="M21.333 15.16c0.037 0.235 0.058 0.506 0.058 0.782 0 2.946-2.388 5.334-5.334 5.334-2.67 0-4.881-1.962-5.272-4.522l-0.004-0.030c-0.037-0.235-0.058-0.506-0.058-0.782 0-2.946 2.388-5.334 5.334-5.334 2.67 0 4.881 1.962 5.272 4.522l0.004 0.030zM23.333 8.667h0.016"></path>
</symbol>
<symbol id="icon-instagram_white_mobile" viewBox="0 0 32 32">
<path fill="none"  stroke-linejoin="round" stroke-linecap="round" stroke-miterlimit="4" stroke-width="2.0800" d="M22.666 2.666h-13.333c-3.682 0-6.667 2.985-6.667 6.667v0 13.333c0 3.682 2.985 6.667 6.667 6.667v0h13.334c3.681-0.001 6.666-2.986 6.666-6.667v0-13.333c0-3.682-2.984-6.666-6.666-6.667h-0z"></path>
<path fill="none" stroke-linejoin="round" stroke-linecap="round" stroke-miterlimit="4" stroke-width="2.0800" d="M21.333 15.16c0.045 0.261 0.071 0.562 0.071 0.868 0 2.946-2.388 5.334-5.334 5.334-2.7 0-4.932-2.007-5.286-4.61l-0.003-0.028c-0.029-0.209-0.046-0.451-0.046-0.697 0-2.946 2.388-5.334 5.334-5.334 2.64 0 4.831 1.917 5.259 4.435l0.004 0.031zM23.334 8.666h0.016"></path>
</symbol>
<symbol id="icon-twitter_black" viewBox="0 0 32 32">
<path stroke-linejoin="round" stroke-linecap="round" stroke-miterlimit="4" stroke-width="2" d="M30.667 4c-1.2 0.856-2.591 1.552-4.084 2.013l-0.103 0.027c-1.101-1.261-2.712-2.053-4.507-2.053-3.299 0-5.973 2.674-5.973 5.973 0 0.028 0 0.056 0.001 0.084l-0-0.004v1.333c-0.11 0.003-0.239 0.005-0.368 0.005-4.79 0-9.027-2.37-11.602-6.001l-0.030-0.044s-5.333 12 6.667 17.333c-2.442 1.677-5.462 2.679-8.716 2.679-0.217 0-0.433-0.004-0.648-0.013l0.031 0.001c12 6.667 26.667 0 26.667-15.333 0-0.372-0.037-0.741-0.107-1.107 1.323-1.305 2.293-2.963 2.758-4.822l0.015-0.071z"></path>
</symbol>
<symbol id="icon-twitter_black_mobile" viewBox="0 0 32 32">
<path stroke-linejoin="round" stroke-linecap="round" stroke-miterlimit="4" stroke-width="2.0800" d="M30.667 4c-1.2 0.857-2.59 1.553-4.083 2.014l-0.103 0.027c-1.101-1.262-2.712-2.054-4.508-2.054-3.299 0-5.973 2.674-5.973 5.973 0 0.029 0 0.057 0.001 0.086l-0-0.004v1.333c-0.11 0.003-0.239 0.005-0.369 0.005-4.79 0-9.027-2.37-11.602-6.001l-0.030-0.044s-5.334 12 6.666 17.333c-2.442 1.678-5.463 2.679-8.717 2.679-0.216 0-0.432-0.004-0.646-0.013l0.031 0.001c12 6.667 26.667 0 26.667-15.333-0.002-0.373-0.037-0.742-0.107-1.107 1.323-1.305 2.293-2.964 2.758-4.824l0.015-0.071z"></path>
</symbol>
<symbol id="icon-twitter_white" viewBox="0 0 32 32">
<path fill="none" stroke="#f7f7f7" style="stroke: var(--color1, #f7f7f7)" stroke-linejoin="round" stroke-linecap="round" stroke-miterlimit="4" stroke-width="2" d="M30.667 4c-1.2 0.856-2.591 1.552-4.084 2.013l-0.103 0.027c-1.101-1.261-2.712-2.053-4.507-2.053-3.299 0-5.973 2.674-5.973 5.973 0 0.028 0 0.056 0.001 0.084l-0-0.004v1.333c-0.11 0.003-0.239 0.005-0.368 0.005-4.79 0-9.027-2.37-11.602-6.001l-0.030-0.044s-5.333 12 6.667 17.333c-2.442 1.677-5.462 2.679-8.716 2.679-0.217 0-0.433-0.004-0.648-0.013l0.031 0.001c12 6.667 26.667 0 26.667-15.333 0-0.372-0.037-0.741-0.107-1.107 1.323-1.305 2.293-2.963 2.758-4.822l0.015-0.071z"></path>
</symbol>
<symbol id="icon-twitter_white_mobile" viewBox="0 0 32 32">
<path fill="none"  stroke-linejoin="round" stroke-linecap="round" stroke-miterlimit="4" stroke-width="2.0800" d="M30.667 4c-1.2 0.857-2.591 1.553-4.084 2.014l-0.103 0.027c-1.101-1.262-2.712-2.054-4.508-2.054-3.299 0-5.973 2.674-5.973 5.973 0 0.029 0 0.057 0.001 0.086l-0-0.004v1.333c-0.11 0.003-0.239 0.005-0.369 0.005-4.79 0-9.027-2.37-11.602-6.001l-0.030-0.044s-5.333 12 6.667 17.333c-2.442 1.678-5.463 2.679-8.717 2.679-0.217 0-0.433-0.004-0.648-0.013l0.031 0.001c12 6.666 26.667 0 26.667-15.334 0-0.373-0.037-0.742-0.107-1.107 1.323-1.305 2.294-2.963 2.759-4.822l0.015-0.071z"></path>
</symbol>
</defs>
</svg>
